{
	"asset":{
		"generator":"Khronos glTF Blender I/O v5.0.21",
		"version":"2.0"
	},
	"scene":0,
	"scenes":[
		{
			"name":"Scene",
			"nodes":[
				0,
				1
			]
		}
	],
	"nodes":[
		{
			"mesh":0,
			"name":"Cube.001",
			"translation":[
				0,
				0.0020560016855597496,
				0.0077887107618153095
			]
		},
		{
			"mesh":1,
			"name":"Text",
			"rotation":[
				0.7071068286895752,
				0,
				0,
				0.7071068286895752
			],
			"scale":[
				0.03237494081258774,
				0.03237494081258774,
				0.03237494081258774
			],
			"translation":[
				-0.08714878559112549,
				0.03842239826917648,
				0.0750645101070404
			]
		}
	],
	"materials":[
		{
			"doubleSided":true,
			"name":"main",
			"pbrMetallicRoughness":{
				"baseColorFactor":[
					0.33716365694999695,
					0.3712378442287445,
					0.014443841762840748,
					1
				],
				"metallicFactor":0,
				"roughnessFactor":0.6454545259475708
			}
		},
		{
			"doubleSided":true,
			"name":"strap",
			"pbrMetallicRoughness":{
				"baseColorFactor":[
					0.012286488898098469,
					0.010960094630718231,
					0.010960094630718231,
					1
				],
				"metallicFactor":0,
				"roughnessFactor":0.5
			}
		},
		{
			"doubleSided":true,
			"name":"zipper/accent",
			"pbrMetallicRoughness":{
				"baseColorFactor":[
					0.3712378442287445,
					0.003676507854834199,
					0.003676507854834199,
					1
				],
				"metallicFactor":0,
				"roughnessFactor":0.4902912676334381
			}
		},
		{
			"doubleSided":true,
			"name":"text-mat",
			"pbrMetallicRoughness":{
				"baseColorFactor":[
					0.012286488898098469,
					0.010960094630718231,
					0.010960094630718231,
					1
				],
				"metallicFactor":0.3718593120574951,
				"roughnessFactor":0.5075377225875854
			}
		}
	],
	"meshes":[
		{
			"name":"Cube.002",
			"primitives":[
				{
					"attributes":{
						"POSITION":0,
						"NORMAL":1,
						"TEXCOORD_0":2
					},
					"indices":3,
					"material":0
				},
				{
					"attributes":{
						"POSITION":4,
						"NORMAL":5,
						"TEXCOORD_0":6
					},
					"indices":7,
					"material":1
				},
				{
					"attributes":{
						"POSITION":8,
						"NORMAL":9,
						"TEXCOORD_0":10
					},
					"indices":11,
					"material":2
				}
			]
		},
		{
			"name":"Text.001",
			"primitives":[
				{
					"attributes":{
						"POSITION":12,
						"NORMAL":13,
						"TEXCOORD_0":14
					},
					"indices":15,
					"material":3
				}
			]
		}
	],
	"accessors":[
		{
			"bufferView":0,
			"componentType":5126,
			"count":28785,
			"max":[
				0.12153476476669312,
				0.14971473813056946,
				0.07862895727157593
			],
			"min":[
				-0.12243721634149551,
				-0.16982443630695343,
				-0.1621413230895996
			],
			"type":"VEC3"
		},
		{
			"bufferView":1,
			"componentType":5126,
			"count":28785,
			"type":"VEC3"
		},
		{
			"bufferView":2,
			"componentType":5126,
			"count":28785,
			"type":"VEC2"
		},
		{
			"bufferView":3,
			"componentType":5123,
			"count":139200,
			"type":"SCALAR"
		},
		{
			"bufferView":4,
			"componentType":5126,
			"count":23143,
			"max":[
				0.14885284006595612,
				0.17660360038280487,
				-0.04862423613667488
			],
			"min":[
				-0.14109939336776733,
				-0.1757643222808838,
				-0.165138840675354
			],
			"type":"VEC3"
		},
		{
			"bufferView":5,
			"componentType":5126,
			"count":23143,
			"type":"VEC3"
		},
		{
			"bufferView":6,
			"componentType":5126,
			"count":23143,
			"type":"VEC2"
		},
		{
			"bufferView":7,
			"componentType":5123,
			"count":120960,
			"type":"SCALAR"
		},
		{
			"bufferView":8,
			"componentType":5126,
			"count":13178,
			"max":[
				0.11135859042406082,
				-0.032721057534217834,
				0.07489052414894104
			],
			"min":[
				-0.10353578627109528,
				-0.15491926670074463,
				-0.16467387974262238
			],
			"type":"VEC3"
		},
		{
			"bufferView":9,
			"componentType":5126,
			"count":13178,
			"type":"VEC3"
		},
		{
			"bufferView":10,
			"componentType":5126,
			"count":13178,
			"type":"VEC2"
		},
		{
			"bufferView":11,
			"componentType":5123,
			"count":45312,
			"type":"SCALAR"
		},
		{
			"bufferView":12,
			"componentType":5126,
			"count":4652,
			"max":[
				5.101384162902832,
				-0.5896292924880981,
				0.06984031200408936
			],
			"min":[
				0.19922137260437012,
				-0.8520824909210205,
				-0.5539718866348267
			],
			"type":"VEC3"
		},
		{
			"bufferView":13,
			"componentType":5126,
			"count":4652,
			"type":"VEC3"
		},
		{
			"bufferView":14,
			"componentType":5126,
			"count":4652,
			"type":"VEC2"
		},
		{
			"bufferView":15,
			"componentType":5123,
			"count":5343,
			"type":"SCALAR"
		}
	],
	"bufferViews":[
		{
			"buffer":0,
			"byteLength":345420,
			"byteOffset":0,
			"target":34962
		},
		{
			"buffer":0,
			"byteLength":345420,
			"byteOffset":345420,
			"target":34962
		},
		{
			"buffer":0,
			"byteLength":230280,
			"byteOffset":690840,
			"target":34962
		},
		{
			"buffer":0,
			"byteLength":278400,
			"byteOffset":921120,
			"target":34963
		},
		{
			"buffer":0,
			"byteLength":277716,
			"byteOffset":1199520,
			"target":34962
		},
		{
			"buffer":0,
			"byteLength":277716,
			"byteOffset":1477236,
			"target":34962
		},
		{
			"buffer":0,
			"byteLength":185144,
			"byteOffset":1754952,
			"target":34962
		},
		{
			"buffer":0,
			"byteLength":241920,
			"byteOffset":1940096,
			"target":34963
		},
		{
			"buffer":0,
			"byteLength":158136,
			"byteOffset":2182016,
			"target":34962
		},
		{
			"buffer":0,
			"byteLength":158136,
			"byteOffset":2340152,
			"target":34962
		},
		{
			"buffer":0,
			"byteLength":105424,
			"byteOffset":2498288,
			"target":34962
		},
		{
			"buffer":0,
			"byteLength":90624,
			"byteOffset":2603712,
			"target":34963
		},
		{
			"buffer":0,
			"byteLength":55824,
			"byteOffset":2694336,
			"target":34962
		},
		{
			"buffer":0,
			"byteLength":55824,
			"byteOffset":2750160,
			"target":34962
		},
		{
			"buffer":0,
			"byteLength":37216,
			"byteOffset":2805984,
			"target":34962
		},
		{
			"buffer":0,
			"byteLength":10686,
			"byteOffset":2843200,
			"target":34963
		}
	],
	"buffers":[
		{
			"byteLength":2853888,
			"uri":"backpack.bin"
		}
	]
}
